<?xml version="1.0" standalone="no"?>
<!DOCTYPE svg PUBLIC "-//W3C//DTD SVG 20010904//EN"
 "http://www.w3.org/TR/2001/REC-SVG-20010904/DTD/svg10.dtd">
<svg version="1.0" xmlns="http://www.w3.org/2000/svg"
 width="400.000000pt" height="400.000000pt" viewBox="0 0 400.000000 400.000000"
 preserveAspectRatio="xMidYMid meet">
<metadata>
Created by potrace 1.14, written by Peter Selinger 2001-2017
</metadata>
<g transform="translate(0.000000,400.000000) scale(0.100000,-0.100000)"
fill="#000000" stroke="none">
<path d="M0 2000 l0 -2000 2000 0 2000 0 0 2000 0 2000 -2000 0 -2000 0 0
-2000z m2500 1219 c0 -25 -41 -476 -45 -495 -4 -20 -14 -22 -100 -29 -52 -4
-93 -11 -89 -16 3 -5 -7 -21 -21 -36 -15 -16 -45 -52 -67 -81 -23 -29 -56 -69
-74 -89 -40 -44 -44 -60 -9 -37 24 16 25 15 25 -5 0 -12 6 -21 15 -21 20 0 19
-5 -10 -47 -26 -39 -26 -55 0 -33 22 19 75 21 68 3 -4 -11 0 -11 22 -3 24 9
26 9 16 -4 -9 -10 -37 -16 -84 -19 -40 -1 2 -4 92 -5 l164 -2 -7 -180 -7 -180
48 -2 48 -2 -47 -3 -48 -4 0 -80 0 -79 -170 0 c-155 0 -170 -2 -170 -17 0 -15
2 -16 10 -3 10 16 11 15 29 -15 12 -20 12 -20 6 1 -4 14 -1 21 10 21 17 0 30
-31 19 -48 -4 -7 -3 -9 4 -5 30 18 42 -152 16 -239 -14 -48 -14 -49 -10 -10 2
22 7 56 11 75 l6 35 -14 -35 c-31 -76 -69 -155 -78 -161 -15 -9 -24 -109 -10
-109 6 0 11 8 11 18 1 9 8 28 16 42 15 24 15 24 9 -15 -4 -22 -16 -55 -27 -73
-14 -22 -19 -47 -18 -80 2 -26 2 -101 1 -167 l-1 -120 -62 -13 c-35 -7 -128
-24 -208 -38 -79 -14 -172 -31 -207 -38 l-63 -14 -1 272 c-2 343 -1 322 -19
317 -8 -1 -67 -7 -130 -12 -63 -6 -116 -11 -118 -13 -7 -8 170 -18 209 -13 21
3 39 1 39 -3 0 -16 -178 -25 -487 -25 -236 0 -315 3 -324 13 -11 10 -10 12 1
12 29 1 -47 34 -140 62 -65 19 -81 26 -50 22 25 -3 106 -7 180 -9 74 -2 209
-9 300 -15 134 -10 379 -9 518 2 6 1 12 10 12 20 0 16 -3 17 -21 7 -15 -8 -24
-8 -32 0 -7 7 -65 11 -152 12 -77 1 -171 5 -210 9 l-70 7 95 2 c93 2 94 3 60
17 -35 14 -34 14 30 9 36 -3 119 -6 185 -7 l120 -3 2 397 3 397 -38 35 c-49
46 -123 86 -192 103 -80 20 -85 21 -90 23 -3 1 -8 2 -12 1 -67 -9 -217 -11
-222 -2 -13 21 208 36 286 20 65 -14 179 -72 224 -115 l34 -31 0 28 c0 52
-115 111 -270 139 -36 7 -69 15 -75 20 -5 4 -86 32 -179 61 -92 29 -163 55
-157 57 6 2 79 -17 162 -43 83 -26 193 -55 243 -66 91 -20 192 -60 246 -99 15
-11 31 -20 35 -20 3 0 5 21 4 48 -2 26 -2 224 -1 439 l2 393 188 2 c351 5 812
-2 812 -13z m-1351 -54 c0 -5 -6 -1 -14 9 -8 11 -15 24 -15 30 0 5 7 1 15 -10
8 -10 14 -23 14 -29z m21 -36 c0 -6 -4 -7 -10 -4 -5 3 -10 11 -10 16 0 6 5 7
10 4 6 -3 10 -11 10 -16z m20 -39 c6 -11 8 -20 6 -20 -3 0 -10 9 -16 20 -6 11
-8 20 -6 20 3 0 10 -9 16 -20z m40 -15 c14 -19 14 -19 -2 -6 -10 7 -18 18 -18
24 0 6 1 8 3 6 1 -2 9 -13 17 -24z m-186 -399 c52 -25 195 -106 186 -106 -31
0 -213 86 -236 111 -23 25 -12 24 50 -5z m-123 -44 c46 -16 108 -35 136 -41
55 -14 62 -31 13 -31 -35 0 -258 72 -240 78 9 3 9 6 -1 13 -26 16 7 9 92 -19z
m460 -119 c12 -16 12 -17 -1 -7 -8 6 -22 14 -30 17 -13 5 -12 6 1 6 9 1 23 -7
30 -16z m-796 -3 c27 -7 27 -8 5 -8 -14 0 -36 4 -50 8 -20 6 -21 8 -5 8 11 0
34 -4 50 -8z m83 -17 c-10 -2 -26 -2 -35 0 -10 3 -2 5 17 5 19 0 27 -2 18 -5z
m1940 -569 c36 -10 26 -27 -10 -18 -18 4 -51 11 -73 15 l-40 6 50 2 c28 0 60
-2 73 -5z m59 -20 c-3 -3 -12 -4 -19 -1 -8 3 -5 6 6 6 11 1 17 -2 13 -5z m223
-36 c52 -11 102 -24 110 -29 12 -8 11 -9 -5 -5 -11 3 -74 15 -140 27 -66 11
-133 25 -150 30 -54 16 84 -1 185 -23z m340 -94 c0 -2 -7 -4 -15 -4 -8 0 -15
4 -15 10 0 5 7 7 15 4 8 -4 15 -8 15 -10z m-90 -99 c14 -8 21 -14 15 -14 -5 0
-21 6 -35 14 -14 8 -20 14 -15 14 6 0 21 -6 35 -14z m-455 -35 c3 0 1 8 -2 17
-12 31 88 -48 194 -155 57 -57 101 -107 98 -113 -4 -5 26 -53 65 -106 39 -54
57 -83 41 -65 -17 18 -31 29 -31 25 0 -5 -10 8 -21 27 -27 44 -95 125 -179
214 -63 66 -152 143 -137 119 4 -7 -16 4 -45 23 -61 41 -79 68 -24 36 20 -12
39 -22 41 -22z m565 -15 c39 -19 70 -38 70 -40 0 -5 -139 62 -149 71 -13 12
18 0 79 -31z m-809 -270 c5 -22 13 -49 16 -60 3 -13 2 -17 -5 -10 -5 6 -14 31
-20 56 -7 26 -14 55 -18 65 -5 16 -4 16 5 4 6 -8 16 -33 22 -55z m109 -29 c0
-12 -5 -7 -19 24 -11 24 -11 24 3 6 9 -11 16 -24 16 -30z m38 -93 c47 -122 46
-119 34 -108 -10 10 -72 161 -72 177 0 21 11 1 38 -69z m-120 -60 c9 -8 11
-13 4 -13 -7 0 -12 -7 -12 -16 0 -8 5 -12 10 -9 7 4 10 -55 10 -171 0 -98 -2
-175 -5 -172 -3 3 -7 74 -10 159 -3 85 -10 174 -15 199 -9 45 -12 93 -3 55 3
-11 12 -26 21 -32z m-589 -370 c-8 -10 -41 -45 -74 -78 -35 -35 -64 -74 -70
-94 -7 -23 -17 -35 -30 -37 -19 -2 -18 -1 3 13 12 9 22 24 22 35 0 12 33 54
78 99 75 77 98 97 71 62z m-186 -254 c-10 -16 -29 -40 -42 -52 -13 -13 -7 1
15 30 44 60 54 68 27 22z"/>
<path d="M2078 2693 c-24 -4 -27 -9 -33 -58 -7 -54 -1 -172 9 -183 3 -3 6 1 6
10 0 18 84 138 133 190 27 28 31 38 20 42 -16 6 -91 6 -135 -1z"/>
<path d="M2092 1635 c0 -16 2 -22 5 -12 2 9 2 23 0 30 -3 6 -5 -1 -5 -18z"/>
<path d="M2074 1575 c-3 -14 -10 -25 -14 -25 -9 0 -22 -119 -14 -132 8 -12 40
57 48 103 5 27 4 30 -4 14 -7 -15 -8 -10 -4 23 6 46 -2 57 -12 17z"/>
</g>
</svg>
